<svg width="24" height="20" viewBox="0 0 24 20" fill="none" xmlns="http://www.w3.org/2000/svg">
<path d="M10.4983 0.225187C10.6418 0.369562 10.7224 0.565269 10.7224 0.769317C10.7224 0.973367 10.6418 1.16907 10.4983 1.31345L2.61514 9.23927L23.234 9.23927C23.4372 9.23927 23.632 9.32039 23.7757 9.4648C23.9193 9.6092 24 9.80505 24 10.0093C24 10.2135 23.9193 10.4093 23.7757 10.5537C23.632 10.6981 23.4372 10.7793 23.234 10.7793L2.61514 10.7793L10.4983 18.7051C10.6336 18.851 10.7073 19.0441 10.7038 19.2436C10.7003 19.4431 10.6199 19.6334 10.4796 19.7745C10.3392 19.9155 10.1499 19.9964 9.95146 19.9999C9.75302 20.0034 9.56097 19.9294 9.41576 19.7933L0.224013 10.5534C0.0805697 10.409 -4.2779e-07 10.2133 -4.36709e-07 10.0093C-4.45628e-07 9.80522 0.0805697 9.60951 0.224012 9.46513L9.41576 0.225187C9.55938 0.0809913 9.75407 -4.26364e-07 9.95705 -4.35237e-07C10.16 -4.44109e-07 10.3547 0.0809913 10.4983 0.225187Z" fill="black"/>
</svg>
