<svg width="1490" height="4762" viewBox="0 0 1490 4762" fill="none" xmlns="http://www.w3.org/2000/svg">
<path d="M430 3035.07L437.235 3028.61L465.586 3022.68L499.447 3041.29L514.085 3040.75L517.198 3048.48L530.195 3051.47L527.293 3071.95L542.856 3081.31L544.371 3099.26L558.925 3101.72L558.461 3119.14L567 3125.43L555.391 3127.6L522.665 3119.54L520.646 3144.94L501.507 3167.26L487.584 3167.42L486.406 3166.03L486.069 3133.28L491.958 3117.93L484.954 3098.55L440.031 3038.34L430 3035.07Z" fill="#E8E8E8" stroke="#E8E8E8" stroke-width="2"/>
<path d="M180 3138.06H196.081L196.249 3130.7L208.205 3132.5L219.403 3116.32L248.197 3069.97L259.647 3060.57L273.118 3060.16L292.146 3043.32L299.471 3049.04L328.433 3049.61L329.613 3053.37L336.853 3053.21L343.842 3049.29L358.407 3060.73L371.794 3061.22L372.214 3053.13L395.115 3052.48L408.417 3048.96L415.742 3038.5L429.466 3035.31L439.485 3038.66L484.444 3099.07L491.516 3118.28L485.623 3133.65L485.96 3166.26L496.905 3179.18L509.281 3181.96L528.814 3172.56L541.359 3172.15L546.074 3177.54L547 3196.59L541.527 3201.66L524.352 3200.84L524.015 3190.38L515.932 3192.75L511.975 3217.6L504.987 3250.37L483.855 3248.66L479.308 3239.5L457.923 3238.28L443.358 3229.08L408.754 3237.17L387.748 3252.91L344.767 3245.51L339.547 3249.19L301.239 3242.24L278.759 3245.14L278.381 3239.63L287.305 3236.23L284.527 3230.22L275.307 3228.43L265.078 3215.63L276.697 3209.83L267.225 3204.84L258.848 3204.31L258.761 3209.09L251.436 3212.65L243.859 3205.46L224.915 3201.78L226.978 3184.16L200.752 3169.98L199.699 3157.51L181.092 3145.74L180 3138.06Z" fill="#E8E8E8" stroke="#E8E8E8" stroke-width="2"/>
<path d="M937 1.00072H1012.32L1026.35 7.00332L1043.09 3.06521L1049.95 2.7146L1052 4.06324L1054 1.00072L1126.5 1L1132.59 5.97854L1143.39 6.7338L1143.85 24.419L1142.21 26.2499L1142.17 31.5141L1137.4 36.8928L1139.27 39.2578L1135.45 40.1352L1134.88 50.0912L1139.5 50.244L1134.92 56.0803L1138.74 65.8075L1138.58 79.0824L1149.62 80.1123L1150.92 82.2485L1150.72 87.7796L1138.89 101.512L1152.1 119.441L1159.39 123.065L1163.1 123.484L1162.9 137.522L1169.2 137.369L1167.87 145.304L1160.58 145.38L1150.53 151.445L1148.74 163.499L1146.14 166.932L1136.37 163.652L1135.15 160.333L1132.86 163.118L1117.7 160.981L1116.4 162.622L1114.76 159.875L1107.08 159.189L1104.3 160.257L1102.39 157.777H1094.98L1091.89 145.189L1087.73 138.056L1078.6 137.789L1076.58 140.268H1071.92L1071.73 142.862L1067.41 142.825L1061.46 148.013L1056.42 143.855L1048.13 144.275L1044.73 139.545L1040.27 139.24L1034.65 135.311L1034.2 131.534L1029.19 131.916L1028.51 129.322L1022.55 128.94L1015.83 119.327L1015.87 116.047L1012.32 115.78L1012.74 113.72L1014.23 112.003L1010.06 111.24L1009.8 106.548L1003.92 100.598L1003.76 97.2026L1000.86 96.249L997.273 99.3007L990.705 95.2953L993.798 94.7613L993.416 92.5488L990.133 91.4044L987.803 94.0746L988.338 99.3007L983.68 100.216L982.112 95.4906L980.073 95.342L977.59 92.793L977.293 85.8744L973.661 85.6723L973.527 78.7132L974.944 73.5478L969.949 68.3419L969.908 65.4288L965.44 65.1049L958.352 59.0629L953.29 58.6043L953.871 53.9649L950.28 49.2581L948.12 48.9075L944.907 44.1332L946.824 40.3974L945.204 37.1471L947.999 35.5961L948.053 32.5077L951.886 28.4752L954.181 28.3944L954.223 24.9553L951.523 22.231L952.994 19.5068L955.195 19.5483L955.222 17.2017L948.095 17.3364L943.667 14.194L942.857 9.4062L939.631 8.85326L939.712 4.98256L937 1.00072Z" fill="#E8E8E8" stroke="#E8E8E8" stroke-width="2"/>
<path d="M123 3148.93L145.996 3141.42L149.04 3134.39L180.152 3137.17L181.167 3145.18L199.935 3156.94L200.949 3169.51L227.327 3183.56L225.129 3201.37L244.066 3204.96L251.845 3212.31L259.115 3208.88V3203.65L267.57 3204.31L277.884 3209.21L265.541 3215.09L276.193 3227.66L260.806 3241.71L266.386 3260.82L286 3276.5L276.024 3291.53L264.188 3291.37L266.217 3306.89L271.12 3313.09L265.033 3316.2L237.641 3315.22L228.848 3317.99L228.679 3316.03L238.825 3302.64L237.134 3296.92L223.268 3296.84L222.761 3290.63L210.671 3277.57L203.358 3277.89L197.778 3270.13L192.79 3274.18L193.382 3280.38L186.153 3288.27L171.865 3284.67L166.116 3275.81L151.702 3274.91L137.287 3259.39L149.926 3253.47L137.667 3238.24L153.646 3236.08L141.43 3224.44L134.243 3223.66L135.046 3212.43L143.331 3203.61L142.147 3195.61L132.086 3192.26L131.664 3184.75L145.445 3181.64L128.071 3175.39L127.941 3168.04L131.872 3166.7L123 3148.93Z" fill="#E8E8E8" stroke="#E8E8E8" stroke-width="2"/>
<path d="M137.319 3260.01L150.125 3253.7L137.74 3238.53L154 3236.16L141.363 3224.68L134.033 3223.94L135.128 3212.71L143.385 3203.94L142.373 3195.34L132.263 3192.71L129.651 3197.71L121.227 3197.06L118.53 3186.65L79.8598 3185.42L75.7315 3181.4L71.098 3186.4L68.1492 3181.81L52.3945 3181.07L48.0978 3177.14L42.453 3182.06L29.3101 3181.65L21.5591 3190.25L7.57371 3177.3L1.08652 3182.88L1 3203.61L9.50923 3204.84L17.5129 3217.71L17.0072 3228.7L59.806 3263.86L61.2383 3276.24L73.7915 3279.27L73.7051 3288.7L105.383 3307.31L112.46 3298.78L108.332 3296.32L108.669 3285.91L115.746 3281.73L116.757 3271.73L132.006 3271.49L127.036 3259.93L137.319 3260.01Z" fill="#E8E8E8" stroke="#E8E8E8" stroke-width="2"/>
<path d="M143.484 3334.51L134.897 3334.34L135.234 3329.83L115.281 3311.05L104 3309.25L112.84 3298.34L108.209 3296.04L108.63 3285.54L115.87 3281.53L116.881 3271.52H132.372L126.984 3259.71H137.255L151.651 3274.96L166.131 3275.95L171.435 3284.81L186 3288.66L170.509 3296.7L169.835 3306.7L157.207 3307.77L155.523 3300.55L137.675 3320.48L143.484 3326.22L143.484 3334.51Z" fill="#E8E8E8" stroke="#E8E8E8" stroke-width="2"/>
<path d="M283.329 3359.9L284 3337.53L279.641 3337.36L279.891 3330.61L266.561 3326.54L264.382 3316.7L237.386 3316.05L198.402 3327.28L197.144 3338.18L187.754 3337.85L187 3366.24L197.983 3381.86L207.959 3383.08L233.949 3382.59L242.333 3371.37L273.353 3370.06L277.041 3360.63L283.329 3359.9Z" fill="#E8E8E8" stroke="#E8E8E8" stroke-width="2"/>
<path d="M174.718 3439.42L167.925 3436.19L166.803 3422.21L141.523 3404.95L148.106 3397.2L141.423 3392.63L143.094 3381.36L147.605 3380.87L146.603 3348.37L152.117 3348.53L152.618 3335.95L143.262 3337.26L143.764 3326.32L138 3320.92L155.709 3300.51L157.463 3308.35L172.583 3307.45L188.287 3320.76L187.034 3366.66L198.06 3382.18L207.75 3383.16L208 3397.2L196.389 3405.86L194.802 3417.87L181.604 3419.99L182.105 3432.16L174.718 3439.42Z" fill="#E8E8E8" stroke="#E8E8E8" stroke-width="2"/>
<path d="M416.977 3342.28L406.275 3343.84L410.52 3348.47L410.281 3359.13L369.562 3363.35L368.187 3359.07L353.059 3358.61L345.705 3351.6L326.153 3351.95L315.33 3359.07L287.945 3363.58L283.58 3359.24L277.362 3360.17L273.781 3369.83L242.579 3370.98L234.039 3382.11L207.571 3382.36L207.824 3396.85L195.986 3405.37L194.379 3417.65L181.273 3419.37L181.526 3432.06L174 3438.77L176.283 3448.1L196.155 3464.73L211.545 3463.17L212.221 3471.28L199.284 3471.77L213.152 3493.96L224.206 3492.11L227.075 3497.09L230.783 3491.88L264.625 3491.3L292.847 3502.07L280.53 3512.49L265.223 3503.92L252.547 3503.81L242.622 3493.97L234.251 3503.7L221.216 3505.2L218.944 3511.34L211.29 3512.84L212.128 3518.05L218.346 3518.17L219.063 3525.92L227.076 3526.73L234.968 3535.88V3541.44L229.108 3545.84L230.902 3555.33L234.251 3555.22L235.447 3563.1H242.861L243.34 3556.26L249.08 3552.44L261.038 3568.54L260.923 3577.69L266.184 3578.15L265.587 3570.16L269.414 3562.52L278.383 3563.1L279.937 3570.62L292.494 3579.31L292.852 3574.91L288.428 3572.13L288.312 3555.92L274.082 3531.02L285.203 3530.67L291.78 3543.99L295.248 3537.39L303.619 3537.97L304.098 3530.21L292.498 3528.82L291.542 3518.17L288.074 3514.58L294.173 3511.22L313.905 3511.8L325.265 3523.73L325.624 3500.8L269.06 3470.93L287.835 3470L287.118 3463.4L278.388 3455.53L283.53 3447.54L296.325 3457.96L299.794 3454.48L282.454 3436.42L280.779 3428.78L268.941 3419.63L269.658 3399.48L282.932 3391.96L283.529 3397.63L279.703 3401.57L297.401 3410.72L322.036 3401.68L312.23 3389.18L315.339 3384.2L336.745 3385.59L339.017 3378.18L346.79 3377.95L348.584 3387.91L344.996 3393.12H358.39L353.845 3387.33V3382.69L367.239 3375.98L383.742 3378.53L406.702 3386.52L417.541 3377.29L416.189 3365.42L421.052 3359.97L429 3358.78L428.704 3349.74L416.977 3342.28Z" fill="#E8E8E8" stroke="#E8E8E8" stroke-width="2"/>
<path d="M1301.43 683.634L1309.21 667.331L1328.52 652.795L1336.68 637.965L1345.05 642.586L1351.52 637.468L1365.67 641.426L1375.52 636.079L1375.05 653.505L1371.55 666.878L1366.58 677.502L1364.85 692.433L1367.65 694.103L1364.03 701.666L1367.33 703.511L1371.84 696.727L1373.07 701.202L1371.06 709.976L1379.29 714.635L1378.5 721.647L1385.47 726.182L1387.27 745.583L1390.88 747.737L1393.71 756.661L1391.54 764.217L1395.3 766.96L1395.1 775.071L1400.39 778.1L1399.4 782.875L1395.63 780.372L1389.21 783.897L1387.65 780.224L1384.12 778.365L1380.25 765.462L1381.29 757.354L1375.23 746.879L1374.21 730.185L1369.46 726.849L1367.01 719.157L1349.59 708.135L1349.02 703.555L1345.47 704.306L1335.52 701.862L1330.19 688.579L1318.13 697.465L1315.38 688.594L1312.01 688.824L1301.43 683.634ZM1381.08 686.654L1375.59 691.734L1375.2 696.739L1382.9 700.835L1382.17 697.406L1379.34 694.719L1381.08 686.654Z" fill="#E8E8E8" stroke="#E8E8E8" stroke-width="2"/>
<path d="M1032.34 656.822L1020.42 650.943L1021.08 644.909L1024.48 642.456L1026.37 643.936L1034.21 630.05L1030.1 603.663L1036.63 596.385L1031.61 589.868L1036.55 579.354L1040.12 568.551L1031.08 562.54L1033.87 556.637L1044 554.764L1045.89 543.927L1058.17 542.015L1061.67 532.402L1064.87 533.963L1067.4 529.749L1075.27 527.671L1079.45 519.874L1082.48 519.308L1098.94 529.217L1143.3 449.047L1160.36 459.232L1180.99 422.448L1289.88 487.163L1294.26 484.94L1293.72 489.547L1386.08 544.486L1382.78 555.101L1383.49 565.38L1366.56 595.839L1363.95 612.672L1367.74 615.018L1370.55 624.266L1369.1 627.623L1373.79 630.332L1375.09 636.212L1365.33 641.212L1351.02 637.506L1344.63 642.405L1336.19 637.899L1328.16 652.729L1308.91 667.283L1301.1 683.389L1294.2 693.169L1285.63 698.174L1278.76 707.274L1271.04 704.687L1255.78 713.447L1250.71 714.468L1240.17 729.553L1235.53 731.011L1232.47 725.399L1223.79 728.315L1221.03 736.608L1209.07 747.07L1207.06 741.386L1213.83 732.314L1206.38 713.264L1221.25 688.172L1214.25 683.822L1212.1 686.761L1199.88 679.294L1202.57 688.466L1196.76 699.781L1182.22 703.158L1180.84 706.554L1162.89 712.385L1153.46 706.317L1147.28 688.641L1137.71 689.354L1135.24 693.775L1121.43 690.544L1118.28 695.265L1103.47 686.958L1102.96 678.908L1087.18 669.757L1078.87 668.226L1075.19 647.905L1077.13 644.577L1060.19 637.812L1057.12 643.459L1052.15 644.452L1048.85 650.221L1037.87 659.685L1032.34 656.822Z" fill="#E8E8E8" stroke="#E8E8E8" stroke-width="2"/>
<path d="M1286.77 238.561L1289.9 242.97L1299.57 244.621L1321.81 265.78L1322.56 270.96L1330.09 274.926L1328.82 277.499L1340.15 283.91L1343.69 292.594L1350.26 296.603L1367.08 294.549L1371.33 297.701L1375.15 294.367L1386.68 301.777L1389.49 299.775L1400.53 309.601L1398.16 314.147L1401.7 321.607L1407.61 318.3L1411.3 326.721L1422.5 332.557L1422.5 388.057L1411.88 397.309L1408.29 405.452L1400.72 406.138L1394.3 380.741L1398.03 370.202L1395.51 357.547L1398.61 346.633L1392.41 349.374L1389.4 354.765L1391.41 361.669L1387.02 369.955L1391.9 396.411L1388.14 405.073L1389.24 420.477L1386.03 426.001L1384.32 482.482L1387.32 495.553L1382.98 493.457L1376.38 510.213L1378.09 522.386L1383.01 524.95L1386.06 544.215L1294.07 489.29L1294.45 484.807L1290.23 486.782L1181.35 422.333L1258.64 284.302L1262.47 265.203L1265.3 260.166L1275.37 254.04L1275.88 246.746L1278.82 240.434L1286.77 238.561Z" fill="#E8E8E8" stroke="#E8E8E8" stroke-width="2"/>
<path d="M906.345 414.808L904.532 407.711L906.059 406.843L905.983 403.058L903.195 399.864L905.143 395.566L908.465 396.473L910.66 394.029L910.736 391.111L914.115 390.618L913.294 383.501L917.991 382.614L919.346 384.585L925.13 384.506L934.79 380.307L940.002 383.797L953.747 383.521L964.839 377.685L980.627 377.192L984.56 374.708L987.161 377.463L979.214 385.778L973.196 387.266L972.619 394.201L974.184 398.465L971.912 404.241L971.855 413.739L968.18 418.776L965.226 418.697L917.289 448.191L911.495 448.043L903.195 441.478L904.703 440.359L904.745 436.668L903.485 436.727L903.313 434.529L905.967 431.842L906.091 426.785L910.802 426.795L910.765 422.911L913.337 422.694L913.213 417.337L911.638 416.735L911.656 414.7L906.345 414.808Z" fill="#E8E8E8" stroke="#E8E8E8" stroke-width="2"/>
<path d="M895.155 436.912L895.78 433.086L899.23 427.994L899.299 425.005L901.915 423.427L902.147 418.98L906.384 414.724L911.709 414.7L911.662 416.756L913.191 417.282L913.306 422.662L910.76 422.853L910.829 426.822L906.083 426.727L905.99 431.819L903.327 434.545L901.198 434.497L898.732 438.46L897.922 437.026L895.155 436.912Z" fill="#E8E8E8" stroke="#E8E8E8" stroke-width="2"/>
<path d="M883 462.889L890.91 451.769L892.842 440.307L894.872 440.442L895.101 436.824L897.884 436.96L898.702 438.481L901.158 434.491L903.352 434.458L903.483 436.723L904.76 436.656L904.792 440.307L900.896 443.148L900.748 447.898L896.358 444.683L893.626 447.349L893.636 455.658L895.847 455.933L892.223 459.125L892.536 462.006L897.028 462.137L899.027 459.513L898.667 467.967L894.902 475.642L891.889 487.781L883 462.889Z" fill="#E8E8E8" stroke="#E8E8E8" stroke-width="2"/>
<path d="M53 1474.42H58.1567L58.2107 1471.91L62.0445 1472.53L65.6352 1467.01L74.8687 1451.2L78.5404 1447.99L82.8601 1447.85L88.9618 1442.11L91.3107 1444.06L100.598 1444.26L100.976 1445.54L103.298 1445.48L105.539 1444.14L110.21 1448.05L114.502 1448.21L114.637 1445.45L121.981 1445.23L126.247 1444.03L128.595 1440.46L132.996 1439.38L136.209 1440.52L150.626 1461.12L152.894 1467.68L151.004 1472.92L151.112 1484.04L154.622 1488.45L158.591 1489.39L164.854 1486.19L168.877 1486.05L170.389 1487.89L170.686 1494.39L168.931 1496.11L163.423 1495.84L163.315 1492.27L160.723 1493.08L159.454 1501.55L157.214 1512.73L150.437 1512.15L148.979 1509.02L142.122 1508.61L137.451 1505.47L126.355 1508.23L119.618 1513.6L105.836 1511.07L104.162 1512.33L91.8777 1509.96L84.6691 1510.95L84.5477 1509.07L87.4095 1507.91L86.5186 1505.86L83.5622 1505.25L80.2819 1500.88L84.0077 1498.9L80.9704 1497.2L78.2841 1497.02L78.2564 1498.65L75.9075 1499.86L73.4777 1497.41L67.403 1496.16L68.0645 1490.15L59.6545 1485.31L59.317 1481.06L53.3503 1477.04L53 1474.42Z" fill="#E8E8E8" stroke="#E8E8E8" stroke-width="2"/>
<path d="M311.562 1631.75L303.162 1629.07L297.587 1624.3L297.551 1619.61L291.021 1620.99L289.112 1618.46L284.683 1618.66L283.882 1619.92L280.407 1619.88L276.245 1623.98L280.102 1626.47L280.254 1629.62L277.735 1629.98L276.131 1631.87L276.627 1635.85L273 1639.12L273.115 1641.69L282.469 1640.47L282.011 1642.79L287.127 1641.1L291.022 1634.75L296.863 1635.85L299.078 1633.53L305.531 1636.13L311.105 1635.1L311.562 1631.75ZM396.987 1712.38L397.743 1709.34L395.205 1706.39L400.496 1701.62L400.294 1697.56L397.513 1697.38L389.927 1703.08L382.427 1698.27L373.53 1706.59L357.532 1710.34L352.263 1708.05L349.285 1703L339.167 1698.78L329.775 1698.47L328.706 1706.94L323.131 1706.71L319.58 1709.27L314.502 1707.38L311.448 1704.62L311.295 1700.4L308.66 1699.85L307.667 1701.9L304.422 1699.02L301.138 1699.18L297.931 1701.98L297.664 1698.07L301.329 1695.39L289.13 1695.53L292.166 1692.34L287.985 1690.48L288.118 1681.83L281.627 1678.18L278.897 1679.19L276.893 1676.64L277.523 1671.48L280.883 1675.32L286.667 1675.01L281.589 1670.73L285.656 1667.26L281.036 1662.05L284.453 1657.44L275.289 1659.47L274.755 1651.23L280.978 1645.36L287.202 1643.94L289.76 1646.66L310.76 1644.84L307.811 1642.54L320.986 1639.03L311.051 1635.07L311.402 1631.64L336.834 1634.09L355.085 1622.21L363.238 1619.54L382.677 1620.71L385.377 1618.2L386.889 1622.05L389.805 1625.39L398.552 1624.56L403.574 1632.2L407.678 1629.35L412.321 1634.09L420.691 1633.81L426.684 1636.6L440.994 1633.59L450.605 1636.6L467.506 1627.9L480.056 1628.64L482.347 1625.82L488.131 1630.14L488.342 1632.3L492.102 1634.12L495.577 1639.87L493.191 1644.03L495.787 1649.87L503.175 1650.19L508.597 1654.76L508.406 1655.21L503.996 1655.06L503.595 1660L499.033 1660.4L503.958 1676.29L501.533 1682.73L506.02 1685.34L505.886 1688.79L507.604 1692.53L502.259 1696.06L501.591 1691.67L492.714 1692.79L489.659 1690.64L482.214 1690.76L479.007 1694.01L476.429 1691.51L472.535 1693.93L456.728 1694.45L445.56 1700.22L431.891 1700.52L426.679 1697.09L417.096 1701.23L411.12 1701.29L409.898 1699.43L405.107 1700.26L405.927 1707.24L402.548 1707.87L402.491 1710.69L400.315 1713.16L396.987 1712.38Z" fill="#E8E8E8" stroke="#E8E8E8" stroke-width="2"/>
<path d="M398.176 1731.55L396.363 1724.45L397.89 1723.58L397.814 1719.8L395.027 1716.61L396.974 1712.31L400.296 1713.21L402.491 1710.77L402.567 1707.85L405.946 1707.36L405.125 1700.24L409.822 1699.35L411.177 1701.33L416.962 1701.25L426.621 1697.05L431.833 1700.54L445.579 1700.26L456.67 1694.43L472.458 1693.93L476.391 1691.45L478.992 1694.2L471.046 1702.52L465.027 1704.01L464.45 1710.94L466.015 1715.21L463.743 1720.98L463.686 1730.48L460.011 1735.52L457.057 1735.44L409.12 1764.93L403.326 1764.78L395.026 1758.22L396.535 1757.1L396.576 1753.41L395.316 1753.47L395.144 1751.27L397.798 1748.58L397.922 1743.53L402.633 1743.54L402.596 1739.65L405.168 1739.44L405.044 1734.08L403.469 1733.48L403.488 1731.44L398.176 1731.55Z" fill="#E8E8E8" stroke="#E8E8E8" stroke-width="2"/>
<path d="M548.554 1797.89L551.723 1797.44L552.028 1799.45L555.751 1798.95L554.014 1793.87L551.99 1793.77L549.527 1791.11L549.241 1783.85L545.557 1783.73L545.48 1776.62L546.874 1771.24L541.891 1765.83L541.854 1762.72L537.311 1762.46L530.247 1756.23L525.245 1755.82L525.818 1750.99L522.21 1746.1L519.957 1745.72L516.846 1740.86L518.793 1736.91L517.151 1733.58L519.957 1732L520.015 1728.75L523.871 1724.59L526.105 1724.55L526.162 1721.08L523.432 1718.14L524.921 1715.35H527.193L527.211 1712.96L520.014 1713.12L515.604 1709.94L514.802 1704.84L511.538 1704.32L511.633 1700.3L507.701 1692.63L502.145 1696.18L501.515 1691.61L492.695 1692.79L489.641 1690.56L482.234 1690.74L471.008 1702.57L464.996 1703.99L464.456 1710.99L466.022 1715.23L463.781 1721.03L463.701 1730.48L460.029 1735.53L457.032 1735.44L433.419 1749.6L436.979 1761.86L435.953 1764.26L439.848 1766.03L437.681 1767.97L452.193 1770.2L474.176 1782.74L508.066 1810.22L530.209 1811.94L535.459 1805.26L538.351 1797.3L543.133 1796.26L548.554 1797.89Z" fill="#E8E8E8" stroke="#E8E8E8" stroke-width="2"/>
<path d="M54.4644 1241.68L51.0746 1234.43L51.1858 1227.42L42.5541 1222.52L47.2589 1210.19L37.5159 1178.98L46.518 1178.44L47.2959 1168.56L55.4459 1168.98L73.6354 1190.39L97.834 1192.98L120.152 1175.21L133.407 1168.25L142.89 1177.95L137.284 1179.98L137.48 1185L142.313 1186.06L142.523 1190.46L135.136 1190.92L134.742 1195.02L148.364 1207.25L156.537 1207.38L158.895 1227.42L167.434 1234.35L188.652 1236.57L189.7 1242.91L208.927 1256.5L230.303 1260.62L262.785 1252.71L276.092 1252.01L280.074 1254.71L282.431 1244.1L279.445 1240.04L300.558 1234.84L301.134 1226.55L314.337 1217.35L336.603 1217.83L339.275 1212.74L361.96 1213.18L363.165 1220.43L382.864 1225.52L384.488 1230.13L411.469 1232.62L412.045 1239.87L417.179 1244.8L425.195 1244.42L436.459 1258.56L457.415 1260.08L458.316 1295.58L455.131 1299.26L455.059 1309.83L445.798 1320.63L449.428 1325.38L442.019 1327.14L440.907 1347.13L449.873 1347.43L440.982 1359.15L448.391 1378.68L448.094 1405.33L469.506 1407.4L472.026 1411.69L471.656 1422.8L448.687 1450.37L474.323 1486.36L488.474 1493.64L495.661 1494.48L495.291 1522.67L507.516 1522.36L504.923 1538.29L490.771 1538.44L471.285 1550.62L467.803 1574.82L462.765 1581.72L443.797 1575.13L441.426 1568.47L436.981 1574.06L407.567 1569.77L405.048 1573.06L401.862 1567.55L386.969 1566.17L381.561 1568.31L377.856 1563.34H363.483L357.481 1538.06L349.405 1523.74L331.697 1523.2L327.771 1528.18H318.731L318.361 1533.39L309.989 1533.31L298.431 1543.73L288.651 1535.38L272.573 1536.23L265.979 1526.73L257.31 1526.12L246.419 1518.23L245.53 1510.65L235.824 1511.41L234.49 1506.2L222.932 1505.44L209.892 1486.14L209.963 1479.55L203.073 1479.01L203.887 1474.88L206.777 1471.43L198.701 1469.9L198.182 1460.48L186.772 1448.53L186.476 1441.72L180.845 1439.8L173.88 1445.93L161.137 1437.89L167.138 1436.81L166.397 1432.37L160.025 1430.07L155.505 1435.44L156.543 1445.93L147.503 1447.77L144.461 1438.28L140.505 1437.98L135.685 1432.86L135.109 1418.97L128.063 1418.57L127.801 1404.59L130.551 1394.22L120.859 1383.77L120.778 1377.92L112.108 1377.27L98.3554 1365.14L88.5322 1364.22L89.6586 1354.9L82.6907 1345.45L78.4994 1344.75L72.265 1335.16L75.9847 1327.66L72.8412 1321.14L78.2637 1318.02L78.3685 1311.82L85.8079 1303.73L90.2611 1303.56L90.3417 1296.66L85.1028 1291.19L87.9579 1285.72L92.2278 1285.8L92.2816 1281.09L78.4504 1281.36L69.8584 1275.05L68.2866 1265.44L62.026 1264.33L62.1828 1256.56L54.4644 1241.68Z" fill="#E8E8E8" stroke="#E8E8E8" stroke-width="2"/>
<path d="M1310.56 1913.42L1302.16 1910.9L1296.59 1906.42L1296.55 1902.01L1290.02 1903.31L1288.11 1900.94L1283.68 1901.12L1282.88 1902.31L1279.41 1902.27L1275.25 1906.12L1279.1 1908.46L1279.25 1911.42L1276.73 1911.76L1275.13 1913.54L1275.63 1917.28L1272 1920.35L1272.11 1922.76L1281.47 1921.61L1281.01 1923.8L1286.13 1922.21L1290.02 1916.24L1295.86 1917.28L1298.08 1915.09L1304.53 1917.54L1310.11 1916.57L1310.56 1913.42ZM1395.99 1989.2L1396.74 1986.34L1394.2 1983.57L1399.5 1979.09L1399.29 1975.27L1396.51 1975.1L1388.93 1980.46L1381.43 1975.94L1372.53 1983.76L1356.53 1987.28L1351.26 1985.13L1348.29 1980.38L1338.17 1976.42L1328.77 1976.12L1327.71 1984.09L1322.13 1983.87L1318.58 1986.28L1313.5 1984.5L1310.45 1981.9L1310.29 1977.94L1307.66 1977.42L1306.67 1979.35L1303.42 1976.64L1300.14 1976.79L1296.93 1979.42L1296.66 1975.75L1300.33 1973.23L1288.13 1973.36L1291.17 1970.36L1286.98 1968.62L1287.12 1960.49L1280.63 1957.06L1277.9 1958L1275.89 1955.61L1276.52 1950.76L1279.88 1954.37L1285.67 1954.08L1280.59 1950.05L1284.66 1946.79L1280.04 1941.9L1283.45 1937.57L1274.29 1939.48L1273.75 1931.73L1279.98 1926.21L1286.2 1924.88L1288.76 1927.43L1309.76 1925.73L1306.81 1923.56L1319.99 1920.26L1310.05 1916.54L1310.4 1913.32L1335.83 1915.62L1354.08 1904.46L1362.24 1901.95L1381.68 1903.05L1384.38 1900.69L1385.89 1904.3L1388.8 1907.45L1397.55 1906.66L1402.57 1913.84L1406.68 1911.17L1411.32 1915.62L1419.69 1915.36L1423 1917.06V1975.94L1416.1 1978.72L1410.12 1978.77L1408.9 1977.03L1404.11 1977.81L1404.93 1984.37L1401.55 1984.96L1401.49 1987.61L1399.31 1989.93L1395.99 1989.2Z" fill="#E8E8E8" stroke="#E8E8E8" stroke-width="2"/>
<path d="M1397.18 2007.21L1395.36 2000.54L1396.89 1999.73L1396.81 1996.17L1394.03 1993.17L1395.97 1989.13L1399.3 1989.98L1401.49 1987.68L1401.57 1984.94L1404.95 1984.48L1404.13 1977.79L1408.82 1976.96L1410.18 1978.81L1415.96 1978.74L1422.5 1976.06V2030.06L1408.12 2038.59L1402.33 2038.45L1394.03 2032.28L1395.53 2031.23L1395.58 2027.76L1394.32 2027.81L1394.14 2025.75L1396.8 2023.22L1396.92 2018.47L1401.63 2018.48L1401.6 2014.83L1404.17 2014.62L1404.04 2009.59L1402.47 2009.02L1402.49 2007.11L1397.18 2007.21Z" fill="#E8E8E8" stroke="#E8E8E8" stroke-width="2"/>
<path d="M735.15 2167.63L733.336 2160.96L734.864 2160.14L734.787 2156.59L732 2153.59L733.947 2149.55L737.269 2150.4L739.465 2148.1L739.541 2145.36L742.92 2144.9L742.099 2138.21L746.795 2137.37L748.151 2139.23L753.935 2139.15L763.595 2135.21L768.807 2138.48L782.552 2138.23L793.644 2132.74L809.432 2132.28L813.365 2129.94L815.966 2132.53L808.019 2140.35L802.001 2141.75L801.423 2148.26L802.989 2152.27L800.717 2157.7L800.66 2166.62L796.985 2171.36L794.03 2171.28L746.094 2199L740.3 2198.86L732 2192.69L733.508 2191.64L733.55 2188.17L732.29 2188.23L732.118 2186.16L734.772 2183.64L734.896 2178.89L739.606 2178.89L739.569 2175.24L742.142 2175.04L742.018 2170.01L740.443 2169.44L740.461 2167.53L735.15 2167.63Z" fill="#E8E8E8" stroke="#E8E8E8" stroke-width="2"/>
<path d="M1060 4642.92L1053.79 4655.4L1052.79 4678.96L1051.37 4688.64L1046.99 4693.99L1046.16 4699.15L1045 4707.4L1040.94 4710.82L1033.47 4710.75L1026.71 4714.49L1023.17 4721.01L1021.3 4739.7L1013.5 4760.06L855.5 4760.06L875.895 4721.39L860.119 4690.64L869.649 4680.06L877.119 4651.11L891.479 4643.18L895.471 4631.77L895.987 4621.06L901.46 4617.52L910.282 4617.52L922.839 4607.14L929.472 4607.46L931.468 4613.91L935.654 4615.26L947.567 4611.84L955.23 4616.03L959.545 4615.52L963.215 4612.87L982.662 4613.84L1000.44 4604.56L1003.14 4607.59L1004.69 4613.84L1013.31 4620.87L1023.1 4620.87L1023.23 4619L1027.8 4619.26L1031.34 4621.26L1031.28 4625.64L1033.34 4627.64L1036.24 4627.58L1036.56 4630.93L1039.72 4631.38L1045.96 4643.18L1060 4642.92Z" fill="#E8E8E8" stroke="#E8E8E8" stroke-width="2"/>
</svg>
