<svg width="1444" height="2335" viewBox="0 0 1444 2335" fill="none" xmlns="http://www.w3.org/2000/svg">
<path d="M10.7341 1069.57L8.98722 1065.96L9.04451 1062.47L4.59634 1060.03L7.02089 1053.89L2 1038.34L6.63905 1038.07L7.03992 1033.15L11.2398 1033.36L20.6134 1044.02L33.0837 1045.31L44.585 1036.47L51.4155 1033L56.3022 1037.83L53.4135 1038.84L53.5146 1041.34L56.0052 1041.87L56.1132 1044.06L52.3064 1044.29L52.1037 1046.33L59.1233 1052.42L63.335 1052.49L64.55 1062.47L68.9507 1065.92L79.885 1067.03L80.425 1070.18L90.3333 1076.95L101.349 1079L118.088 1075.06L124.945 1074.71L126.997 1076.06L128.212 1070.78L126.673 1068.75L137.553 1066.16L137.85 1062.04L144.654 1057.45L156.128 1057.69L157.505 1055.16L169.195 1055.37L169.816 1058.99L179.968 1061.52L180.805 1063.82L194.709 1065.06L195.006 1068.67L197.652 1071.13L201.782 1070.94L207.587 1077.98L218.386 1078.73L218.851 1096.42L217.209 1098.25L217.172 1103.51L212.399 1108.89L214.27 1111.26L210.452 1112.13L209.879 1122.09L214.499 1122.24L209.918 1128.08L213.736 1137.81L213.583 1151.08L224.617 1152.11L225.915 1154.25L225.725 1159.78L213.889 1173.51L227.099 1191.44L234.392 1195.06L238.096 1195.48L237.905 1209.52L244.205 1209.37L242.868 1217.3L235.576 1217.38L225.534 1223.44L223.74 1235.5L221.143 1238.93L211.369 1235.65L210.147 1232.33L207.856 1235.12L192.698 1232.98L191.4 1234.62L189.758 1231.87L182.084 1231.19L179.296 1232.26L177.387 1229.78H169.98L166.887 1217.19L162.726 1210.06L153.6 1209.79L151.577 1212.27H146.919L146.728 1214.86L142.413 1214.82L136.457 1220.01L131.417 1215.85L123.132 1216.27L119.734 1211.54L115.266 1211.24L109.654 1207.31L109.196 1203.53L104.194 1203.92L103.507 1201.32L97.5503 1200.94L90.8304 1191.33L90.8673 1188.05L87.3164 1187.78L87.7361 1185.72L89.2252 1184L85.0635 1183.24L84.7962 1178.55L78.9162 1172.6L78.7633 1169.2L75.8615 1168.25L72.2725 1171.3L65.7053 1167.3L68.7979 1166.76L68.4161 1164.55L65.1325 1163.4L62.8034 1166.07L63.338 1171.3L58.6798 1172.22L57.1118 1167.49L55.0734 1167.34L52.5895 1164.79L52.2926 1157.87L48.6613 1157.67L48.5265 1150.71L49.9439 1145.55L44.9492 1140.34L44.9076 1137.43L40.4395 1137.1L33.3524 1131.06L28.2902 1130.6L28.8707 1125.96L25.2799 1121.26L23.12 1120.91L19.9073 1116.13L21.8241 1112.4L20.2042 1109.15L22.9985 1107.6L23.0526 1104.51L26.8863 1100.47L29.1811 1100.39L29.2227 1096.96L26.5229 1094.23L27.9943 1091.51L30.1947 1091.55L30.2224 1089.2L23.0948 1089.34L18.667 1086.19L17.8571 1081.41L14.6308 1080.85L14.7116 1076.98L10.7341 1069.57Z" fill="#E8E8E8"/>
<path d="M492 1180.91H497.157L497.211 1178.48L501.044 1179.07L504.635 1173.73L513.869 1158.44L517.54 1155.33L521.86 1155.2L527.962 1149.64L530.311 1151.53L539.598 1151.72L539.976 1152.96L542.298 1152.91L544.539 1151.61L549.21 1155.39L553.502 1155.55L553.637 1152.88L560.981 1152.66L565.247 1151.5L567.595 1148.05L571.996 1147L575.209 1148.11L589.626 1168.04L591.894 1174.38L590.004 1179.45L590.112 1190.21L593.622 1194.47L597.591 1195.39L603.854 1192.29L607.877 1192.15L609.389 1193.93L609.686 1200.22L607.931 1201.89L602.423 1201.62L602.315 1198.17L599.723 1198.95L598.454 1207.15L596.214 1217.97L589.437 1217.4L587.979 1214.38L581.122 1213.97L576.451 1210.94L565.355 1213.61L558.618 1218.8L544.836 1216.36L543.162 1217.58L530.878 1215.28L523.669 1216.24L523.548 1214.42L526.409 1213.3L525.519 1211.32L522.562 1210.72L519.282 1206.5L523.008 1204.59L519.97 1202.94L517.284 1202.77L517.256 1204.35L514.907 1205.52L512.478 1203.15L506.403 1201.93L507.065 1196.12L498.655 1191.44L498.317 1187.33L492.35 1183.44L492 1180.91Z" fill="#E8E8E8"/>
<path d="M233.481 1128.38L235.836 1127.68L235.288 1125.76L238.578 1124.51L241.44 1119.88L248.924 1116.69L253.37 1117.09L255.959 1122.32L258.482 1123.14L263.743 1116.21L266.403 1118.54L263.697 1124.89L260.804 1127.63L262.467 1133.07L269.262 1135.79L272.165 1141.31L269.878 1148.97L262.75 1157.79L263.97 1162.85L269.508 1165.43L273.046 1164.21L273.9 1166.89L277.31 1163.67L279.797 1169.04L284.52 1167.94L287.227 1177.92L280.2 1184.2L280.47 1186.6L278.157 1187.46L278.883 1189.53L277.792 1191.28L274.802 1192.01L274.016 1194.9L274.736 1198.09L276.033 1197.75L277.824 1204.68L274.585 1211.95L270.494 1214.27L258.29 1190.99L247.969 1187.38L246.869 1183.28L242.801 1179.86L238.484 1179.56L234.506 1174.84L232.601 1167.73L239.341 1158.98L234.043 1134.02L231.817 1132.92L233.938 1130.59L233.481 1128.38Z" fill="#E8E8E8"/>
<path d="M531.135 2071.83L534.304 2071.39L534.609 2073.34L538.332 2072.86L536.595 2067.94L534.571 2067.85L532.108 2065.27L531.822 2058.25L528.138 2058.14L528.061 2051.25L529.455 2046.05L524.472 2040.82L524.435 2037.81L519.892 2037.56L512.828 2031.53L507.827 2031.13L508.399 2026.46L504.791 2021.73L502.538 2021.36L499.427 2016.65L501.374 2012.84L499.732 2009.62L502.538 2008.09L502.596 2004.94L506.452 2000.92L508.686 2000.88L508.743 1997.52L506.013 1994.68L507.502 1991.97H509.774L509.792 1989.67L502.595 1989.82L498.185 1986.75L497.383 1981.81L494.119 1981.31L494.214 1977.42L490.282 1970L484.726 1973.44L484.096 1969.01L475.276 1970.16L472.222 1968L464.815 1968.17L453.589 1979.62L447.577 1980.99L447.037 1987.76L448.603 1991.86L446.362 1997.47L446.282 2006.62L442.61 2011.5L439.613 2011.42L416 2025.11L419.56 2036.97L418.534 2039.29L422.429 2041.01L420.262 2042.88L434.774 2045.04L456.757 2057.17L490.647 2083.76L512.79 2085.42L518.04 2078.96L520.932 2071.26L525.714 2070.25L531.135 2071.83Z" fill="#E8E8E8"/>
<path d="M1186.67 1405.06L1184.92 1401.44L1184.98 1397.95L1180.53 1395.51L1182.96 1389.37L1177.94 1373.82L1182.58 1373.56L1182.98 1368.64L1187.18 1368.85L1196.55 1379.51L1209.02 1380.8L1220.52 1371.95L1227.35 1368.48L1232.24 1373.31L1229.35 1374.32L1229.45 1376.82L1231.94 1377.35L1232.05 1379.54L1228.24 1379.77L1228.04 1381.81L1235.06 1387.9L1239.27 1387.97L1240.49 1397.95L1244.89 1401.4L1255.82 1402.51L1256.36 1405.67L1266.27 1412.44L1277.29 1414.49L1294.02 1410.55L1300.88 1410.2L1302.93 1411.55L1304.15 1406.26L1302.61 1404.24L1313.49 1401.65L1313.79 1397.52L1320.59 1392.93L1332.07 1393.18L1333.44 1390.64L1345.13 1390.86L1345.75 1394.47L1355.9 1397.01L1356.74 1399.3L1370.65 1400.54L1370.94 1404.16L1373.59 1406.61L1377.72 1406.42L1383.52 1413.46L1394.32 1414.22L1394.79 1431.9L1393.15 1433.73L1393.11 1439L1388.34 1444.38L1390.21 1446.74L1386.39 1447.62L1385.82 1457.57L1390.44 1457.73L1385.85 1463.56L1389.67 1473.29L1389.52 1486.57L1400.55 1487.6L1401.85 1489.73L1401.66 1495.26L1389.83 1509L1403.04 1526.92L1410.33 1530.55L1414.03 1530.97L1413.84 1545L1420.14 1544.85L1418.81 1552.79L1411.51 1552.86L1401.47 1558.93L1399.68 1570.98L1397.08 1574.42L1387.31 1571.13L1386.08 1567.82L1383.79 1570.6L1368.64 1568.46L1367.34 1570.1L1365.7 1567.36L1358.02 1566.67L1355.23 1567.74L1353.32 1565.26H1345.92L1342.82 1552.67L1338.66 1545.54L1329.54 1545.27L1327.51 1547.75H1322.86L1322.66 1550.34L1318.35 1550.31L1312.39 1555.5L1307.35 1551.34L1299.07 1551.76L1295.67 1547.03L1291.2 1546.72L1285.59 1542.79L1285.13 1539.02L1280.13 1539.4L1279.44 1536.8L1273.49 1536.42L1266.77 1526.81L1266.8 1523.53L1263.25 1523.26L1263.67 1521.2L1265.16 1519.49L1261 1518.72L1260.73 1514.03L1254.85 1508.08L1254.7 1504.69L1251.8 1503.73L1248.21 1506.78L1241.64 1502.78L1244.73 1502.24L1244.35 1500.03L1241.07 1498.89L1238.74 1501.56L1239.28 1506.78L1234.62 1507.7L1233.05 1502.97L1231.01 1502.82L1228.53 1500.28L1228.23 1493.36L1224.6 1493.16L1224.46 1486.2L1225.88 1481.03L1220.89 1475.82L1220.84 1472.91L1216.38 1472.59L1209.29 1466.55L1204.23 1466.09L1204.81 1461.45L1201.22 1456.74L1199.06 1456.39L1195.84 1451.62L1197.76 1447.88L1196.14 1444.63L1198.94 1443.08L1198.99 1439.99L1202.82 1435.96L1205.12 1435.88L1205.16 1432.44L1202.46 1429.71L1203.93 1426.99L1206.13 1427.03L1206.16 1424.68L1199.03 1424.82L1194.6 1421.68L1193.79 1416.89L1190.57 1416.34L1190.65 1412.47L1186.67 1405.06Z" fill="#E8E8E8"/>
<path d="M990.562 1346.11L982.162 1343.52L976.587 1338.9L976.551 1334.36L970.021 1335.7L968.112 1333.26L963.683 1333.45L962.882 1334.67L959.407 1334.63L955.245 1338.6L959.102 1341L959.255 1344.05L956.735 1344.39L955.131 1346.23L955.627 1350.08L952 1353.24L952.115 1355.72L961.469 1354.54L961.011 1356.79L966.127 1355.15L970.022 1349.01L975.863 1350.08L978.078 1347.83L984.531 1350.34L990.105 1349.35L990.562 1346.11ZM1075.99 1424.12L1076.74 1421.18L1074.2 1418.32L1079.5 1413.7L1079.29 1409.78L1076.51 1409.6L1068.93 1415.12L1061.43 1410.46L1052.53 1418.51L1036.53 1422.14L1031.26 1419.92L1028.29 1415.04L1018.17 1410.96L1008.77 1410.65L1007.71 1418.86L1002.13 1418.63L998.58 1421.11L993.502 1419.28L990.448 1416.61L990.295 1412.52L987.66 1411.99L986.667 1413.97L983.422 1411.19L980.138 1411.34L976.931 1414.05L976.664 1410.27L980.329 1407.68L968.13 1407.81L971.166 1404.72L966.985 1402.93L967.118 1394.56L960.627 1391.03L957.897 1392L955.893 1389.54L956.523 1384.54L959.883 1388.26L965.667 1387.96L960.589 1383.82L964.656 1380.46L960.036 1375.43L963.453 1370.96L954.289 1372.93L953.755 1364.96L959.978 1359.27L966.202 1357.9L968.76 1360.53L989.76 1358.78L986.811 1356.55L999.986 1353.15L990.051 1349.32L990.402 1346L1015.83 1348.37L1034.08 1336.88L1042.24 1334.29L1061.68 1335.43L1064.38 1333L1065.89 1336.72L1068.8 1339.96L1077.55 1339.15L1082.57 1346.54L1086.68 1343.79L1091.32 1348.37L1099.69 1348.1L1105.68 1350.8L1119.99 1347.89L1129.6 1350.8L1146.51 1342.39L1159.06 1343.1L1161.35 1340.37L1167.13 1344.55L1167.34 1346.65L1171.1 1348.4L1174.58 1353.97L1172.19 1357.99L1174.79 1363.64L1182.18 1363.94L1187.6 1368.37L1187.41 1368.81L1183 1368.66L1182.6 1373.44L1178.03 1373.82L1182.96 1389.2L1180.53 1395.43L1185.02 1397.95L1184.89 1401.29L1186.6 1404.91L1181.26 1408.33L1180.59 1404.07L1171.71 1405.16L1168.66 1403.08L1161.21 1403.2L1158.01 1406.34L1155.43 1403.92L1151.53 1406.27L1135.73 1406.76L1124.56 1412.35L1110.89 1412.64L1105.68 1409.32L1096.1 1413.32L1090.12 1413.38L1088.9 1411.59L1084.11 1412.39L1084.93 1419.14L1081.55 1419.75L1081.49 1422.48L1079.31 1424.86L1075.99 1424.12Z" fill="#E8E8E8"/>
<path d="M109.22 2225.09L111.542 2222.96L120.64 2221L131.507 2227.14L136.205 2226.96L137.204 2229.51L141.375 2230.49L140.443 2237.25L145.438 2240.34L145.924 2246.26L150.595 2247.07L150.446 2252.81L153.186 2254.89L149.461 2255.61L138.958 2252.95L138.31 2261.33L132.168 2268.69L127.7 2268.74L127.322 2268.28L127.214 2257.48L129.104 2252.42L126.856 2246.02L112.439 2226.17L109.22 2225.09Z" fill="#E8E8E8"/>
<path d="M59.786 2288.7L62.7558 2289.3L63.7278 2291.35L60.785 2292.48L60.8658 2294.29L68.1283 2293.34L80.3316 2295.58L82.0325 2294.39L95.8286 2296.88L102.578 2291.62L113.648 2289L118.372 2291.99L125.23 2292.32L126.688 2295.37L133.383 2295.72L133.599 2300.81L128.632 2300.6L125.068 2304.54L124.96 2311.71L122.665 2311.52L119.803 2315.51L122.719 2316.35L126.094 2322.39L119.56 2323.61L117.697 2321.29L113.27 2321.38L112.527 2322.57H109.017L104.914 2326.53L101.62 2327.01L102.916 2328.5L102.835 2332L89.8622 2333.52L89.3897 2332.14L84.6246 2331.93L82.2757 2329.59L75.9716 2329.74L72.5833 2332.02L63.8358 2333.55L62.3779 2332.17L62.6342 2324.85L61.3248 2324.74L61.3663 2322.54L57.1006 2321.14L56.3312 2317.89L58.1941 2316.88L56.7226 2314.89L56.1017 2309.7L59.814 2309.77L63.0267 2304.79L56.8036 2299.65L54.9678 2293.27L59.786 2288.7Z" fill="#E8E8E8"/>
<path d="M11 2262.67L18.3435 2260.19L19.3155 2257.87L29.2509 2258.79L29.5751 2261.43L35.5687 2265.32L35.8924 2269.47L44.3159 2274.11L43.614 2279.99L49.6616 2281.18L52.1455 2283.61L54.4673 2282.47V2280.75L57.1671 2280.96L60.4609 2282.58L56.5192 2284.52L59.921 2288.68L55.0073 2293.32L56.7892 2299.63L63.0527 2304.81L59.8669 2309.77L56.0872 2309.72L56.7351 2314.84L58.301 2316.89L56.3572 2317.92L47.6097 2317.59L44.8019 2318.51L44.7478 2317.86L47.9876 2313.44L47.4477 2311.55L43.0199 2311.52L42.8578 2309.47L38.9971 2305.16L36.6618 2305.26L34.8799 2302.7L33.2869 2304.04L33.4758 2306.09L31.1674 2308.69L26.6047 2307.5L24.7688 2304.58L20.1656 2304.28L15.5624 2299.16L19.5986 2297.2L15.6839 2292.17L20.7866 2291.45L16.8853 2287.61L14.5905 2287.35L14.8468 2283.65L17.4926 2280.73L17.1144 2278.09L13.9016 2276.98L13.7668 2274.5L18.1675 2273.48L12.6193 2271.41L12.5777 2268.99L13.8332 2268.54L11 2262.67Z" fill="#E8E8E8"/>
<path d="M953.657 1L943.043 9.01067L943.501 12.9016L951.901 22.0566L951.748 29.8384L947.624 29.5332L945.181 26.4053L942.89 29.8384L940.064 29.6095L931.741 24.7268L925.555 24.9557L921.737 27.7785L921.584 23.2773L912.955 16.7162L906.77 16.8688L906.541 21.0648L901.959 21.8277L902.723 25.3372L904.708 26.1001L912.421 33.2716L920.057 32.2035L922.272 39.909L914.941 44.105L899.21 39.6038L893.941 34.4922L894.705 33.119L891.192 32.6612L890.199 34.4922L887.603 33.9582L880.959 30.2962L882.028 24.498L879.127 15.3429L874.927 11.7572L879.356 10.2313L879.127 3.13618L881.952 4.43314L878.821 1.07629H820.251L822.084 6.56932L817.502 6.11157L815.593 14.7326L818.418 15.8007L818.189 18.5472H815.669V22.8195L817.197 24.1165L822.16 24.4217L821.778 28.0837L820.098 28.5414L821.167 32.7375L824.222 33.1953L827.353 35.5603L826.895 40.3667L820.709 45.7072L835.218 55.0148L840.105 62.11L836.745 69.5103L808.949 95.1445L792.302 107.58H797.877L803.68 104.147L801.237 111.547H805.437L808.033 114.37L817.12 113.683L819.793 116.964L822.618 117.803L822.542 120.321L809.408 117.879L804.521 121.618L800.702 121.007L799.099 124.288L794.899 122.152L797.572 130.01L792.99 132.604L792.685 135.35L787.874 140.08L789.324 150.838L793.143 157.857L786.881 162.892L793.601 168.156L790.164 175.175L793.372 176.167L798.106 184.101V188.831L802.841 189.67L804.979 192.112L806.659 190.967L812.386 192.569L813.226 196.384L824.604 193.409L832.24 198.215L831.019 203.174L833.844 206.76L830.102 211.032L834.837 214.465L836.593 222.476L842.091 223.468L844.115 226.367L842.817 227.893L842.702 230.029L849.231 229.495L851.522 231.097L851.751 233.882L855.073 236.323L847.857 241.969H843.275L841.633 239.718L838.426 239.756L836.44 243.037L840.22 246.89L840.433 255.031L841.838 257.528L843.268 259.077L848.816 259.158L850.465 255.625L857.213 256.636L860.13 253.899L864.234 254.183L864.651 255.68L866.272 254.235L868.458 254.33L871.185 257.218L871.238 260.939L875.681 263.757L875.383 265.173L872.035 265.39L871.993 267.71L873.301 267.736L873.356 272.173L883.832 273.549L884.116 276.179L886.951 276.26L887.801 284.595L890.676 287.479L895.346 285.97L903.257 289.544L912.881 285.741L916.379 288.641L916.412 290.967L916.273 305.403L911.737 305.296L899.965 312.634L901.91 323.637L893.811 327.845L886.251 322.235L875.235 322.452L875.775 328.386L855.634 328.601L855.147 334.266L844.888 342.465L846.482 347.233L852.439 347.862L850.129 351.334L846.96 349.827L843.924 352.44L848.964 355.263L857.784 356.064L859.578 353.794L866.069 357.323L867.425 357.113L867.138 359.649L862.748 360.412L852.286 366.02L852.515 367.546L858.357 367.431L860.228 369.758L864.046 369.796L865.917 371.589L865.764 375.022L862.977 379.333L865.955 381.851L871.224 381.965L878.096 376.129L884.396 376.205L887.68 373.42L887.947 371.208L892.338 371.322L893.14 372.696L901.463 372.238L902.227 368.004L906.885 367.813L907.649 369.11L904.098 370.636L912.078 372.81L912.612 376.358L914.56 378.112L919.752 377.807L924.754 383.262H929.947L946.214 397.882L946.699 395.764L954.8 395.874L965.288 400.12L982.742 401.875L985.603 405.327L990.288 405.637L992.731 407.89L992.948 410.844L997.525 410.789L1001.8 407.54L1012.32 409.521L1012.51 411.49L1017.84 411.423L1017.1 416.184L1021.12 418.867L1026.76 421.186L1031.26 421.43L1036.64 426.582L1037.44 430.372L1045.31 431.369L1048.74 425.976L1051.59 426.083L1054.13 422.13L1050.13 419.231L1050.24 417.129L1043 409.306L1043.16 405.961L1039.55 403.425L1040.52 393.554L1044.84 389.346L1043.6 388.159L1040.09 390.641L1033.82 381.955L1030.42 382.118L1030.69 378.124L1034.96 375.535L1042.35 361.402L1049.48 361.616L1052.72 358.164L1055.15 358.596L1055.58 355.358L1059.85 354.981L1062.06 352.23L1053.15 348.129L1052.99 345.757L1057.8 346.565L1059.31 345.109L1053.48 335.236L1048.46 330.058L1039.49 328.17L1039.6 329.788L1035.71 329.357L1035.93 325.526L1034.74 321.103L1027.02 318.459L1031.07 310.367L1034.58 308.372L1034.26 306.321L1030.26 303.356L1033.44 294.508L1035.71 294.398L1038.47 292.62L1038.31 288.142L1040.2 285.985L1042.95 285.93L1048.03 293.104L1050.02 295.748L1054.29 295.693L1057.74 292.942L1055.15 288.789L1054.94 283.393L1057.63 283.341L1063.84 279.564L1065.09 275.194L1070.11 274.601L1070.92 272.605L1075.45 272.011L1078.42 269.53L1078.91 266.509L1080.96 267.103L1082.37 263.865L1087.98 264.838L1088.79 268.829L1094.14 268.612L1094.84 265.429L1101.26 263.758L1103.7 268.774L1114.01 268.073L1117.9 270.178L1118.27 273.361L1122.86 273.955L1127.56 279.24V284.528L1130.1 283.718L1130.21 278.754L1128.48 278.163L1129.13 276.327L1131.45 275.95L1138.68 282.261L1143.49 284.418L1148.73 280.59L1152.99 275.626L1162.23 275.302L1165.14 278.484L1169.36 278.594L1169.73 274.925L1177.24 274.548L1180.21 276.274L1180.37 278.701L1183.83 281.884L1191.93 284.473L1195.33 284.256L1198.51 279.295L1201.38 282.046L1207.42 282.423L1215.36 280.158L1218.49 272.066L1215.09 268.774L1210.77 268.667L1208.83 266.24L1203.27 266.077L1202.89 262.732L1197.92 262.463L1197.87 260.036L1210.72 254.965L1210.45 252.266L1206.67 247.035L1210.82 243.259L1223.68 243.528L1224.11 241.046L1212.01 237.594L1213.04 235.057L1215.95 235.274L1217.41 233.601L1209.36 231.982L1211.8 229.717L1210.18 228.208L1211.15 225.995L1214.06 224.646L1216.87 225.778L1226.91 225.402L1229.45 227.559L1229.94 224.863L1236.42 224.484L1237.88 222.596L1248.08 222.543L1248.51 220.114L1262.66 219.899L1265.57 215.853L1273.19 214.773L1282.53 212.778L1293.87 211.483L1301.97 207.814L1301.43 205.172L1310.29 202.905L1311.2 201.127L1321.19 203.067L1326.05 206.467L1329.08 203.716L1333.29 202.366L1336.37 206.629L1336.64 212.616L1339.28 212.778L1339.34 220.006L1336.26 220.331L1339.28 223.459L1339.71 222.112H1341.6L1342.57 223.838L1344.84 223.568L1347.16 221.087L1351.32 223.514L1349.6 221.625L1351.11 218.874L1353.59 224.377L1353.48 227.452L1357.42 226.804L1355.21 223.406L1360.83 223.297L1362.5 225.888L1367.85 226.048L1369.3 224.431L1371.08 224.539L1370.98 228.477L1367.58 228.26L1364.5 232.306L1366.93 235.489L1369.79 231.875L1374.7 232.037L1379.24 234.895L1379.51 231.066L1384.26 228.315L1388.8 228.639L1392.47 223.568L1396.68 222.543L1400.62 222.705L1401.97 219.468L1406.4 219.954L1409.96 218.118V221.625L1407.75 223.945L1405.05 224.162L1405.97 226.427L1423.95 239.158L1442.68 267.372V1H953.657ZM936.602 337.231L936.683 340.9L926.1 344.622L927.694 346.861L918.163 347.535L920.215 351.259L928.665 356.6L923.697 355.978L915.977 363.287L916.624 367.443L907.878 367.605L908.04 366.499L905.365 366.551L905.337 367.064C905.337 367.064 902.718 367.227 902.691 367.119C902.663 367.011 902.663 366.31 902.663 366.31L896.697 366.282L896.805 367.739H895.428L894.079 366.012L892.815 367.393L887.565 367.431L880.291 355.663L881.725 353.441L884.198 352.678L885.324 350.408L887.319 351.553L883.463 355.549L885.343 356.035L893.437 346.937L899.566 346.794L900.31 345.459L906.095 345.917L907.67 343.351L912.891 343.227L915.139 340.038L923.319 340.281L923.4 339.363L931.555 338.338L936.602 337.231ZM689 218.253L693.32 214.315L693.59 209.028L699.718 209.217L705.577 203.283L706.819 204.254L702.013 209.622L709.276 209.703L709.195 205.36L710.95 203.58L719.778 207.842L726.609 207.68L730.659 211.618L727.824 214.126L727.986 219.143L689 218.253Z" fill="#E8E8E8"/>
<path d="M1208.88 546.425L1211.58 546.052L1211.84 547.708L1215 547.302L1213.52 543.112L1211.8 543.03L1209.71 540.838L1209.47 534.86L1206.33 534.763L1206.27 528.899L1207.45 524.465L1203.22 520.014L1203.19 517.448L1199.32 517.237L1193.32 512.104L1189.07 511.763L1189.55 507.783L1186.49 503.755L1184.57 503.447L1181.92 499.435L1183.58 496.186L1182.18 493.441L1184.57 492.142L1184.62 489.461L1187.9 486.034L1189.8 486.003L1189.84 483.144L1187.52 480.724L1188.79 478.417H1190.72L1190.74 476.452L1184.62 476.582L1180.87 473.967L1180.19 469.76L1177.41 469.338L1177.49 466.024L1174.15 459.706L1169.43 462.629L1168.89 458.861L1161.39 459.835L1158.8 458L1152.5 458.146L1142.96 467.892L1137.85 469.063L1137.39 474.829L1138.72 478.32L1136.81 483.098L1136.74 490.886L1133.62 495.043L1131.07 494.975L1111 506.64L1114.03 516.74L1113.15 518.715L1116.47 520.18L1114.62 521.77L1126.96 523.608L1145.65 533.939L1174.46 556.583L1193.29 558L1197.75 552.494L1200.21 545.94L1204.27 545.079L1208.88 546.425Z" fill="#E8E8E8"/>
<path d="M1069.71 572.773L1066 587.167L1071.7 587.144L1088.01 610.819L1087.94 613.519L1089.69 613.646L1094.23 621.077L1092.99 623.999L1096.23 629.556L1099.47 629.874L1106.08 634.955L1112.65 647.944L1112.78 654.073L1111.54 654.232L1111.61 656.741L1113.89 660.139L1113.54 664.426L1120.15 673.382L1123.96 673.699L1130.63 680.082L1134.98 687.863L1134.82 691.579L1136.54 692.309L1140.09 699.645L1141.97 699.835L1146.48 704.313L1147.11 707.425L1150.99 712.38L1151.5 716L1155.28 712.316L1155.4 706.219L1158.26 702.948L1161.41 705.488L1177.22 704.567L1179 705.774L1192.5 706.124L1195.36 709.839L1198.25 709.966L1201.04 707.489L1201.14 704.409L1206.98 697.359L1217.33 691.865L1248.62 687.355L1278.98 676.685L1286 654.804L1281.39 647.69L1254.27 644.705L1243.57 632.415L1243.63 629.842H1240.42L1241.89 626.508L1236.77 626.635L1232.52 620.506L1232.42 617.489L1229.44 615.075L1227.37 608.565L1229.5 608.343L1229.53 606.024L1226.35 603.865L1228.29 602.531L1219.4 595.926L1219.3 593.385L1214.76 592.273L1214.6 588.844L1210.44 581.952L1202.22 581.983L1200.5 577.092L1171.85 574.901L1143.7 552.786L1125.42 542.681L1113.27 541L1112.47 541.746L1090.85 548.34L1101.06 559.354L1097.55 561.656L1096.11 565.361L1087.54 566.922L1085.12 571.408L1080.26 574.697L1069.71 572.773Z" fill="#E8E8E8"/>
<path d="M10.7341 1069.57L8.98722 1065.96L9.04451 1062.47L4.59634 1060.03L7.02089 1053.89L2 1038.34L6.63905 1038.07L7.03992 1033.15L11.2398 1033.36L20.6134 1044.02L33.0837 1045.31L44.585 1036.47L51.4155 1033L56.3022 1037.83L53.4135 1038.84L53.5146 1041.34L56.0052 1041.87L56.1132 1044.06L52.3064 1044.29L52.1037 1046.33L59.1233 1052.42L63.335 1052.49L64.55 1062.47L68.9507 1065.92L79.885 1067.03L80.425 1070.18L90.3333 1076.95L101.349 1079L118.088 1075.06L124.945 1074.71L126.997 1076.06L128.212 1070.78L126.673 1068.75L137.553 1066.16L137.85 1062.04L144.654 1057.45L156.128 1057.69L157.505 1055.16L169.195 1055.37L169.816 1058.99L179.968 1061.52L180.805 1063.82L194.709 1065.06L195.006 1068.67L197.652 1071.13L201.782 1070.94L207.587 1077.98L218.386 1078.73L218.851 1096.42L217.209 1098.25L217.172 1103.51L212.399 1108.89L214.27 1111.26L210.452 1112.13L209.879 1122.09L214.499 1122.24L209.918 1128.08L213.736 1137.81L213.583 1151.08L224.617 1152.11L225.915 1154.25L225.725 1159.78L213.889 1173.51L227.099 1191.44L234.392 1195.06L238.096 1195.48L237.905 1209.52L244.205 1209.37L242.868 1217.3L235.576 1217.38L225.534 1223.44L223.74 1235.5L221.143 1238.93L211.369 1235.65L210.147 1232.33L207.856 1235.12L192.698 1232.98L191.4 1234.62L189.758 1231.87L182.084 1231.19L179.296 1232.26L177.387 1229.78H169.98L166.887 1217.19L162.726 1210.06L153.6 1209.79L151.577 1212.27H146.919L146.728 1214.86L142.413 1214.82L136.457 1220.01L131.417 1215.85L123.132 1216.27L119.734 1211.54L115.266 1211.24L109.654 1207.31L109.196 1203.53L104.194 1203.92L103.507 1201.32L97.5503 1200.94L90.8304 1191.33L90.8673 1188.05L87.3164 1187.78L87.7361 1185.72L89.2252 1184L85.0635 1183.24L84.7962 1178.55L78.9162 1172.6L78.7633 1169.2L75.8615 1168.25L72.2725 1171.3L65.7053 1167.3L68.7979 1166.76L68.4161 1164.55L65.1325 1163.4L62.8034 1166.07L63.338 1171.3L58.6798 1172.22L57.1118 1167.49L55.0734 1167.34L52.5895 1164.79L52.2926 1157.87L48.6613 1157.67L48.5265 1150.71L49.9439 1145.55L44.9492 1140.34L44.9076 1137.43L40.4395 1137.1L33.3524 1131.06L28.2902 1130.6L28.8707 1125.96L25.2799 1121.26L23.12 1120.91L19.9073 1116.13L21.8241 1112.4L20.2042 1109.15L22.9985 1107.6L23.0526 1104.51L26.8863 1100.47L29.1811 1100.39L29.2227 1096.96L26.5229 1094.23L27.9943 1091.51L30.1947 1091.55L30.2224 1089.2L23.0948 1089.34L18.667 1086.19L17.8571 1081.41L14.6308 1080.85L14.7116 1076.98L10.7341 1069.57Z" stroke="#E8E8E8" stroke-width="2"/>
<path d="M492 1180.91H497.157L497.211 1178.48L501.044 1179.07L504.635 1173.73L513.869 1158.44L517.54 1155.33L521.86 1155.2L527.962 1149.64L530.311 1151.53L539.598 1151.72L539.976 1152.96L542.298 1152.91L544.539 1151.61L549.21 1155.39L553.502 1155.55L553.637 1152.88L560.981 1152.66L565.247 1151.5L567.595 1148.05L571.996 1147L575.209 1148.11L589.626 1168.04L591.894 1174.38L590.004 1179.45L590.112 1190.21L593.622 1194.47L597.591 1195.39L603.854 1192.29L607.877 1192.15L609.389 1193.93L609.686 1200.22L607.931 1201.89L602.423 1201.62L602.315 1198.17L599.723 1198.95L598.454 1207.15L596.214 1217.97L589.437 1217.4L587.979 1214.38L581.122 1213.97L576.451 1210.94L565.355 1213.61L558.618 1218.8L544.836 1216.36L543.162 1217.58L530.878 1215.28L523.669 1216.24L523.548 1214.42L526.409 1213.3L525.519 1211.32L522.562 1210.72L519.282 1206.5L523.008 1204.59L519.97 1202.94L517.284 1202.77L517.256 1204.35L514.907 1205.52L512.478 1203.15L506.403 1201.93L507.065 1196.12L498.655 1191.44L498.317 1187.33L492.35 1183.44L492 1180.91Z" stroke="#E8E8E8" stroke-width="2"/>
<path d="M233.481 1128.38L235.836 1127.68L235.288 1125.76L238.578 1124.51L241.44 1119.88L248.924 1116.69L253.37 1117.09L255.959 1122.32L258.482 1123.14L263.743 1116.21L266.403 1118.54L263.697 1124.89L260.804 1127.63L262.467 1133.07L269.262 1135.79L272.165 1141.31L269.878 1148.97L262.75 1157.79L263.97 1162.85L269.508 1165.43L273.046 1164.21L273.9 1166.89L277.31 1163.67L279.797 1169.04L284.52 1167.94L287.227 1177.92L280.2 1184.2L280.47 1186.6L278.157 1187.46L278.883 1189.53L277.792 1191.28L274.802 1192.01L274.016 1194.9L274.736 1198.09L276.033 1197.75L277.824 1204.68L274.585 1211.95L270.494 1214.27L258.29 1190.99L247.969 1187.38L246.869 1183.28L242.801 1179.86L238.484 1179.56L234.506 1174.84L232.601 1167.73L239.341 1158.98L234.043 1134.02L231.817 1132.92L233.938 1130.59L233.481 1128.38Z" stroke="#E8E8E8" stroke-width="2"/>
<path d="M531.135 2071.83L534.304 2071.39L534.609 2073.34L538.332 2072.86L536.595 2067.94L534.571 2067.85L532.108 2065.27L531.822 2058.25L528.138 2058.14L528.061 2051.25L529.455 2046.05L524.472 2040.82L524.435 2037.81L519.892 2037.56L512.828 2031.53L507.827 2031.13L508.399 2026.46L504.791 2021.73L502.538 2021.36L499.427 2016.65L501.374 2012.84L499.732 2009.62L502.538 2008.09L502.596 2004.94L506.452 2000.92L508.686 2000.88L508.743 1997.52L506.013 1994.68L507.502 1991.97H509.774L509.792 1989.67L502.595 1989.82L498.185 1986.75L497.383 1981.81L494.119 1981.31L494.214 1977.42L490.282 1970L484.726 1973.44L484.096 1969.01L475.276 1970.16L472.222 1968L464.815 1968.17L453.589 1979.62L447.577 1980.99L447.037 1987.76L448.603 1991.86L446.362 1997.47L446.282 2006.62L442.61 2011.5L439.613 2011.42L416 2025.11L419.56 2036.97L418.534 2039.29L422.429 2041.01L420.262 2042.88L434.774 2045.04L456.757 2057.17L490.647 2083.76L512.79 2085.42L518.04 2078.96L520.932 2071.26L525.714 2070.25L531.135 2071.83Z" stroke="#E8E8E8" stroke-width="2"/>
<path d="M1186.67 1405.06L1184.92 1401.44L1184.98 1397.95L1180.53 1395.51L1182.96 1389.37L1177.94 1373.82L1182.58 1373.56L1182.98 1368.64L1187.18 1368.85L1196.55 1379.51L1209.02 1380.8L1220.52 1371.95L1227.35 1368.48L1232.24 1373.31L1229.35 1374.32L1229.45 1376.82L1231.94 1377.35L1232.05 1379.54L1228.24 1379.77L1228.04 1381.81L1235.06 1387.9L1239.27 1387.97L1240.49 1397.95L1244.89 1401.4L1255.82 1402.51L1256.36 1405.67L1266.27 1412.44L1277.29 1414.49L1294.02 1410.55L1300.88 1410.2L1302.93 1411.55L1304.15 1406.26L1302.61 1404.24L1313.49 1401.65L1313.79 1397.52L1320.59 1392.93L1332.07 1393.18L1333.44 1390.64L1345.13 1390.86L1345.75 1394.47L1355.9 1397.01L1356.74 1399.3L1370.65 1400.54L1370.94 1404.16L1373.59 1406.61L1377.72 1406.42L1383.52 1413.46L1394.32 1414.22L1394.79 1431.9L1393.15 1433.73L1393.11 1439L1388.34 1444.38L1390.21 1446.74L1386.39 1447.62L1385.82 1457.57L1390.44 1457.73L1385.85 1463.56L1389.67 1473.29L1389.52 1486.57L1400.55 1487.6L1401.85 1489.73L1401.66 1495.26L1389.83 1509L1403.04 1526.92L1410.33 1530.55L1414.03 1530.97L1413.84 1545L1420.14 1544.85L1418.81 1552.79L1411.51 1552.86L1401.47 1558.93L1399.68 1570.98L1397.08 1574.42L1387.31 1571.13L1386.08 1567.82L1383.79 1570.6L1368.64 1568.46L1367.34 1570.1L1365.7 1567.36L1358.02 1566.67L1355.23 1567.74L1353.32 1565.26H1345.92L1342.82 1552.67L1338.66 1545.54L1329.54 1545.27L1327.51 1547.75H1322.86L1322.66 1550.34L1318.35 1550.31L1312.39 1555.5L1307.35 1551.34L1299.07 1551.76L1295.67 1547.03L1291.2 1546.72L1285.59 1542.79L1285.13 1539.02L1280.13 1539.4L1279.44 1536.8L1273.49 1536.42L1266.77 1526.81L1266.8 1523.53L1263.25 1523.26L1263.67 1521.2L1265.16 1519.49L1261 1518.72L1260.73 1514.03L1254.85 1508.08L1254.7 1504.69L1251.8 1503.73L1248.21 1506.78L1241.64 1502.78L1244.73 1502.24L1244.35 1500.03L1241.07 1498.89L1238.74 1501.56L1239.28 1506.78L1234.62 1507.7L1233.05 1502.97L1231.01 1502.82L1228.53 1500.28L1228.23 1493.36L1224.6 1493.16L1224.46 1486.2L1225.88 1481.03L1220.89 1475.82L1220.84 1472.91L1216.38 1472.59L1209.29 1466.55L1204.23 1466.09L1204.81 1461.45L1201.22 1456.74L1199.06 1456.39L1195.84 1451.62L1197.76 1447.88L1196.14 1444.63L1198.94 1443.08L1198.99 1439.99L1202.82 1435.96L1205.12 1435.88L1205.16 1432.44L1202.46 1429.71L1203.93 1426.99L1206.13 1427.03L1206.16 1424.68L1199.03 1424.82L1194.6 1421.68L1193.79 1416.89L1190.57 1416.34L1190.65 1412.47L1186.67 1405.06Z" stroke="#E8E8E8" stroke-width="2"/>
<path d="M990.562 1346.11L982.162 1343.52L976.587 1338.9L976.551 1334.36L970.021 1335.7L968.112 1333.26L963.683 1333.45L962.882 1334.67L959.407 1334.63L955.245 1338.6L959.102 1341L959.255 1344.05L956.735 1344.39L955.131 1346.23L955.627 1350.08L952 1353.24L952.115 1355.72L961.469 1354.54L961.011 1356.79L966.127 1355.15L970.022 1349.01L975.863 1350.08L978.078 1347.83L984.531 1350.34L990.105 1349.35L990.562 1346.11ZM1075.99 1424.12L1076.74 1421.18L1074.2 1418.32L1079.5 1413.7L1079.29 1409.78L1076.51 1409.6L1068.93 1415.12L1061.43 1410.46L1052.53 1418.51L1036.53 1422.14L1031.26 1419.92L1028.29 1415.04L1018.17 1410.96L1008.77 1410.65L1007.71 1418.86L1002.13 1418.63L998.58 1421.11L993.502 1419.28L990.448 1416.61L990.295 1412.52L987.66 1411.99L986.667 1413.97L983.422 1411.19L980.138 1411.34L976.931 1414.05L976.664 1410.27L980.329 1407.68L968.13 1407.81L971.166 1404.72L966.985 1402.93L967.118 1394.56L960.627 1391.03L957.897 1392L955.893 1389.54L956.523 1384.54L959.883 1388.26L965.667 1387.96L960.589 1383.82L964.656 1380.46L960.036 1375.43L963.453 1370.96L954.289 1372.93L953.755 1364.96L959.978 1359.27L966.202 1357.9L968.76 1360.53L989.76 1358.78L986.811 1356.55L999.986 1353.15L990.051 1349.32L990.402 1346L1015.83 1348.37L1034.08 1336.88L1042.24 1334.29L1061.68 1335.43L1064.38 1333L1065.89 1336.72L1068.8 1339.96L1077.55 1339.15L1082.57 1346.54L1086.68 1343.79L1091.32 1348.37L1099.69 1348.1L1105.68 1350.8L1119.99 1347.89L1129.6 1350.8L1146.51 1342.39L1159.06 1343.1L1161.35 1340.37L1167.13 1344.55L1167.34 1346.65L1171.1 1348.4L1174.58 1353.97L1172.19 1357.99L1174.79 1363.64L1182.18 1363.94L1187.6 1368.37L1187.41 1368.81L1183 1368.66L1182.6 1373.44L1178.03 1373.82L1182.96 1389.2L1180.53 1395.43L1185.02 1397.95L1184.89 1401.29L1186.6 1404.91L1181.26 1408.33L1180.59 1404.07L1171.71 1405.16L1168.66 1403.08L1161.21 1403.2L1158.01 1406.34L1155.43 1403.92L1151.53 1406.27L1135.73 1406.76L1124.56 1412.35L1110.89 1412.64L1105.68 1409.32L1096.1 1413.32L1090.12 1413.38L1088.9 1411.59L1084.11 1412.39L1084.93 1419.14L1081.55 1419.75L1081.49 1422.48L1079.31 1424.86L1075.99 1424.12Z" stroke="#E8E8E8" stroke-width="2"/>
<path d="M109.22 2225.09L111.542 2222.96L120.64 2221L131.507 2227.14L136.205 2226.96L137.204 2229.51L141.375 2230.49L140.443 2237.25L145.438 2240.34L145.924 2246.26L150.595 2247.07L150.446 2252.81L153.186 2254.89L149.461 2255.61L138.958 2252.95L138.31 2261.33L132.168 2268.69L127.7 2268.74L127.322 2268.28L127.214 2257.48L129.104 2252.42L126.856 2246.02L112.439 2226.17L109.22 2225.09Z" stroke="#E8E8E8" stroke-width="2"/>
<path d="M59.786 2288.7L62.7558 2289.3L63.7278 2291.35L60.785 2292.48L60.8658 2294.29L68.1283 2293.34L80.3316 2295.58L82.0325 2294.39L95.8286 2296.88L102.578 2291.62L113.648 2289L118.372 2291.99L125.23 2292.32L126.688 2295.37L133.383 2295.72L133.599 2300.81L128.632 2300.6L125.068 2304.54L124.96 2311.71L122.665 2311.52L119.803 2315.51L122.719 2316.35L126.094 2322.39L119.56 2323.61L117.697 2321.29L113.27 2321.38L112.527 2322.57H109.017L104.914 2326.53L101.62 2327.01L102.916 2328.5L102.835 2332L89.8622 2333.52L89.3897 2332.14L84.6246 2331.93L82.2757 2329.59L75.9716 2329.74L72.5833 2332.02L63.8358 2333.55L62.3779 2332.17L62.6342 2324.85L61.3248 2324.74L61.3663 2322.54L57.1006 2321.14L56.3312 2317.89L58.1941 2316.88L56.7226 2314.89L56.1017 2309.7L59.814 2309.77L63.0267 2304.79L56.8036 2299.65L54.9678 2293.27L59.786 2288.7Z" stroke="#E8E8E8" stroke-width="2"/>
<path d="M11 2262.67L18.3435 2260.19L19.3155 2257.87L29.2509 2258.79L29.5751 2261.43L35.5687 2265.32L35.8924 2269.47L44.3159 2274.11L43.614 2279.99L49.6616 2281.18L52.1455 2283.61L54.4673 2282.47V2280.75L57.1671 2280.96L60.4609 2282.58L56.5192 2284.52L59.921 2288.68L55.0073 2293.32L56.7892 2299.63L63.0527 2304.81L59.8669 2309.77L56.0872 2309.72L56.7351 2314.84L58.301 2316.89L56.3572 2317.92L47.6097 2317.59L44.8019 2318.51L44.7478 2317.86L47.9876 2313.44L47.4477 2311.55L43.0199 2311.52L42.8578 2309.47L38.9971 2305.16L36.6618 2305.26L34.8799 2302.7L33.2869 2304.04L33.4758 2306.09L31.1674 2308.69L26.6047 2307.5L24.7688 2304.58L20.1656 2304.28L15.5624 2299.16L19.5986 2297.2L15.6839 2292.17L20.7866 2291.45L16.8853 2287.61L14.5905 2287.35L14.8468 2283.65L17.4926 2280.73L17.1144 2278.09L13.9016 2276.98L13.7668 2274.5L18.1675 2273.48L12.6193 2271.41L12.5777 2268.99L13.8332 2268.54L11 2262.67Z" stroke="#E8E8E8" stroke-width="2"/>
<path d="M953.657 1L943.043 9.01067L943.501 12.9016L951.901 22.0566L951.748 29.8384L947.624 29.5332L945.181 26.4053L942.89 29.8384L940.064 29.6095L931.741 24.7268L925.555 24.9557L921.737 27.7785L921.584 23.2773L912.955 16.7162L906.77 16.8688L906.541 21.0648L901.959 21.8277L902.723 25.3372L904.708 26.1001L912.421 33.2716L920.057 32.2035L922.272 39.909L914.941 44.105L899.21 39.6038L893.941 34.4922L894.705 33.119L891.192 32.6612L890.199 34.4922L887.603 33.9582L880.959 30.2962L882.028 24.498L879.127 15.3429L874.927 11.7572L879.356 10.2313L879.127 3.13618L881.952 4.43314L878.821 1.07629H820.251L822.084 6.56932L817.502 6.11157L815.593 14.7326L818.418 15.8007L818.189 18.5472H815.669V22.8195L817.197 24.1165L822.16 24.4217L821.778 28.0837L820.098 28.5414L821.167 32.7375L824.222 33.1953L827.353 35.5603L826.895 40.3667L820.709 45.7072L835.218 55.0148L840.105 62.11L836.745 69.5103L808.949 95.1445L792.302 107.58H797.877L803.68 104.147L801.237 111.547H805.437L808.033 114.37L817.12 113.683L819.793 116.964L822.618 117.803L822.542 120.321L809.408 117.879L804.521 121.618L800.702 121.007L799.099 124.288L794.899 122.152L797.572 130.01L792.99 132.604L792.685 135.35L787.874 140.08L789.324 150.838L793.143 157.857L786.881 162.892L793.601 168.156L790.164 175.175L793.372 176.167L798.106 184.101V188.831L802.841 189.67L804.979 192.112L806.659 190.967L812.386 192.569L813.226 196.384L824.604 193.409L832.24 198.215L831.019 203.174L833.844 206.76L830.102 211.032L834.837 214.465L836.593 222.476L842.091 223.468L844.115 226.367L842.817 227.893L842.702 230.029L849.231 229.495L851.522 231.097L851.751 233.882L855.073 236.323L847.857 241.969H843.275L841.633 239.718L838.426 239.756L836.44 243.037L840.22 246.89L840.433 255.031L841.838 257.528L843.268 259.077L848.816 259.158L850.465 255.625L857.213 256.636L860.13 253.899L864.234 254.183L864.651 255.68L866.272 254.235L868.458 254.33L871.185 257.218L871.238 260.939L875.681 263.757L875.383 265.173L872.035 265.39L871.993 267.71L873.301 267.736L873.356 272.173L883.832 273.549L884.116 276.179L886.951 276.26L887.801 284.595L890.676 287.479L895.346 285.97L903.257 289.544L912.881 285.741L916.379 288.641L916.412 290.967L916.273 305.403L911.737 305.296L899.965 312.634L901.91 323.637L893.811 327.845L886.251 322.235L875.235 322.452L875.775 328.386L855.634 328.601L855.147 334.266L844.888 342.465L846.482 347.233L852.439 347.862L850.129 351.334L846.96 349.827L843.924 352.44L848.964 355.263L857.784 356.064L859.578 353.794L866.069 357.323L867.425 357.113L867.138 359.649L862.748 360.412L852.286 366.02L852.515 367.546L858.357 367.431L860.228 369.758L864.046 369.796L865.917 371.589L865.764 375.022L862.977 379.333L865.955 381.851L871.224 381.965L878.096 376.129L884.396 376.205L887.68 373.42L887.947 371.208L892.338 371.322L893.14 372.696L901.463 372.238L902.227 368.004L906.885 367.813L907.649 369.11L904.098 370.636L912.078 372.81L912.612 376.358L914.56 378.112L919.752 377.807L924.754 383.262H929.947L946.214 397.882L946.699 395.764L954.8 395.874L965.288 400.12L982.742 401.875L985.603 405.327L990.288 405.637L992.731 407.89L992.948 410.844L997.525 410.789L1001.8 407.54L1012.32 409.521L1012.51 411.49L1017.84 411.423L1017.1 416.184L1021.12 418.867L1026.76 421.186L1031.26 421.43L1036.64 426.582L1037.44 430.372L1045.31 431.369L1048.74 425.976L1051.59 426.083L1054.13 422.13L1050.13 419.231L1050.24 417.129L1043 409.306L1043.16 405.961L1039.55 403.425L1040.52 393.554L1044.84 389.346L1043.6 388.159L1040.09 390.641L1033.82 381.955L1030.42 382.118L1030.69 378.124L1034.96 375.535L1042.35 361.402L1049.48 361.616L1052.72 358.164L1055.15 358.596L1055.58 355.358L1059.85 354.981L1062.06 352.23L1053.15 348.129L1052.99 345.757L1057.8 346.565L1059.31 345.109L1053.48 335.236L1048.46 330.058L1039.49 328.17L1039.6 329.788L1035.71 329.357L1035.93 325.526L1034.74 321.103L1027.02 318.459L1031.07 310.367L1034.58 308.372L1034.26 306.321L1030.26 303.356L1033.44 294.508L1035.71 294.398L1038.47 292.62L1038.31 288.142L1040.2 285.985L1042.95 285.93L1048.03 293.104L1050.02 295.748L1054.29 295.693L1057.74 292.942L1055.15 288.789L1054.94 283.393L1057.63 283.341L1063.84 279.564L1065.09 275.194L1070.11 274.601L1070.92 272.605L1075.45 272.011L1078.42 269.53L1078.91 266.509L1080.96 267.103L1082.37 263.865L1087.98 264.838L1088.79 268.829L1094.14 268.612L1094.84 265.429L1101.26 263.758L1103.7 268.774L1114.01 268.073L1117.9 270.178L1118.27 273.361L1122.86 273.955L1127.56 279.24V284.528L1130.1 283.718L1130.21 278.754L1128.48 278.163L1129.13 276.327L1131.45 275.95L1138.68 282.261L1143.49 284.418L1148.73 280.59L1152.99 275.626L1162.23 275.302L1165.14 278.484L1169.36 278.594L1169.73 274.925L1177.24 274.548L1180.21 276.274L1180.37 278.701L1183.83 281.884L1191.93 284.473L1195.33 284.256L1198.51 279.295L1201.38 282.046L1207.42 282.423L1215.36 280.158L1218.49 272.066L1215.09 268.774L1210.77 268.667L1208.83 266.24L1203.27 266.077L1202.89 262.732L1197.92 262.463L1197.87 260.036L1210.72 254.965L1210.45 252.266L1206.67 247.035L1210.82 243.259L1223.68 243.528L1224.11 241.046L1212.01 237.594L1213.04 235.057L1215.95 235.274L1217.41 233.601L1209.36 231.982L1211.8 229.717L1210.18 228.208L1211.15 225.995L1214.06 224.646L1216.87 225.778L1226.91 225.402L1229.45 227.559L1229.94 224.863L1236.42 224.484L1237.88 222.596L1248.08 222.543L1248.51 220.114L1262.66 219.899L1265.57 215.853L1273.19 214.773L1282.53 212.778L1293.87 211.483L1301.97 207.814L1301.43 205.172L1310.29 202.905L1311.2 201.127L1321.19 203.067L1326.05 206.467L1329.08 203.716L1333.29 202.366L1336.37 206.629L1336.64 212.616L1339.28 212.778L1339.34 220.006L1336.26 220.331L1339.28 223.459L1339.71 222.112H1341.6L1342.57 223.838L1344.84 223.568L1347.16 221.087L1351.32 223.514L1349.6 221.625L1351.11 218.874L1353.59 224.377L1353.48 227.452L1357.42 226.804L1355.21 223.406L1360.83 223.297L1362.5 225.888L1367.85 226.048L1369.3 224.431L1371.08 224.539L1370.98 228.477L1367.58 228.26L1364.5 232.306L1366.93 235.489L1369.79 231.875L1374.7 232.037L1379.24 234.895L1379.51 231.066L1384.26 228.315L1388.8 228.639L1392.47 223.568L1396.68 222.543L1400.62 222.705L1401.97 219.468L1406.4 219.954L1409.96 218.118V221.625L1407.75 223.945L1405.05 224.162L1405.97 226.427L1423.95 239.158L1442.68 267.372V1H953.657ZM936.602 337.231L936.683 340.9L926.1 344.622L927.694 346.861L918.163 347.535L920.215 351.259L928.665 356.6L923.697 355.978L915.977 363.287L916.624 367.443L907.878 367.605L908.04 366.499L905.365 366.551L905.337 367.064C905.337 367.064 902.718 367.227 902.691 367.119C902.663 367.011 902.663 366.31 902.663 366.31L896.697 366.282L896.805 367.739H895.428L894.079 366.012L892.815 367.393L887.565 367.431L880.291 355.663L881.725 353.441L884.198 352.678L885.324 350.408L887.319 351.553L883.463 355.549L885.343 356.035L893.437 346.937L899.566 346.794L900.31 345.459L906.095 345.917L907.67 343.351L912.891 343.227L915.139 340.038L923.319 340.281L923.4 339.363L931.555 338.338L936.602 337.231ZM689 218.253L693.32 214.315L693.59 209.028L699.718 209.217L705.577 203.283L706.819 204.254L702.013 209.622L709.276 209.703L709.195 205.36L710.95 203.58L719.778 207.842L726.609 207.68L730.659 211.618L727.824 214.126L727.986 219.143L689 218.253Z" stroke="#E8E8E8" stroke-width="2"/>
<path d="M1208.88 546.425L1211.58 546.052L1211.84 547.708L1215 547.302L1213.52 543.112L1211.8 543.03L1209.71 540.838L1209.47 534.86L1206.33 534.763L1206.27 528.899L1207.45 524.465L1203.22 520.014L1203.19 517.448L1199.32 517.237L1193.32 512.104L1189.07 511.763L1189.55 507.783L1186.49 503.755L1184.57 503.447L1181.92 499.435L1183.58 496.186L1182.18 493.441L1184.57 492.142L1184.62 489.461L1187.9 486.034L1189.8 486.003L1189.84 483.144L1187.52 480.724L1188.79 478.417H1190.72L1190.74 476.452L1184.62 476.582L1180.87 473.967L1180.19 469.76L1177.41 469.338L1177.49 466.024L1174.15 459.706L1169.43 462.629L1168.89 458.861L1161.39 459.835L1158.8 458L1152.5 458.146L1142.96 467.892L1137.85 469.063L1137.39 474.829L1138.72 478.32L1136.81 483.098L1136.74 490.886L1133.62 495.043L1131.07 494.975L1111 506.64L1114.03 516.74L1113.15 518.715L1116.47 520.18L1114.62 521.77L1126.96 523.608L1145.65 533.939L1174.46 556.583L1193.29 558L1197.75 552.494L1200.21 545.94L1204.27 545.079L1208.88 546.425Z" stroke="#E8E8E8" stroke-width="2"/>
<path d="M1069.71 572.773L1066 587.167L1071.7 587.144L1088.01 610.819L1087.94 613.519L1089.69 613.646L1094.23 621.077L1092.99 623.999L1096.23 629.556L1099.47 629.874L1106.08 634.955L1112.65 647.944L1112.78 654.073L1111.54 654.232L1111.61 656.741L1113.89 660.139L1113.54 664.426L1120.15 673.382L1123.96 673.699L1130.63 680.082L1134.98 687.863L1134.82 691.579L1136.54 692.309L1140.09 699.645L1141.97 699.835L1146.48 704.313L1147.11 707.425L1150.99 712.38L1151.5 716L1155.28 712.316L1155.4 706.219L1158.26 702.948L1161.41 705.488L1177.22 704.567L1179 705.774L1192.5 706.124L1195.36 709.839L1198.25 709.966L1201.04 707.489L1201.14 704.409L1206.98 697.359L1217.33 691.865L1248.62 687.355L1278.98 676.685L1286 654.804L1281.39 647.69L1254.27 644.705L1243.57 632.415L1243.63 629.842H1240.42L1241.89 626.508L1236.77 626.635L1232.52 620.506L1232.42 617.489L1229.44 615.075L1227.37 608.565L1229.5 608.343L1229.53 606.024L1226.35 603.865L1228.29 602.531L1219.4 595.926L1219.3 593.385L1214.76 592.273L1214.6 588.844L1210.44 581.952L1202.22 581.983L1200.5 577.092L1171.85 574.901L1143.7 552.786L1125.42 542.681L1113.27 541L1112.47 541.746L1090.85 548.34L1101.06 559.354L1097.55 561.656L1096.11 565.361L1087.54 566.922L1085.12 571.408L1080.26 574.697L1069.71 572.773Z" stroke="#E8E8E8" stroke-width="2"/>
</svg>
